<svg width="789" height="481" viewBox="0 0 789 481" fill="none" xmlns="http://www.w3.org/2000/svg">
<path d="M12.6428 183.399C15.7369 183.399 17.1358 183.201 19.9137 181.868C22.988 180.392 26.5952 180.872 29.8633 180.146C31.4094 179.802 32.9872 180.037 34.5512 179.954C37.3505 179.807 39.4619 178.114 42.1091 177.563C44.808 177 47.6377 177.742 50.3367 177.18C54.2671 176.361 57.5808 174.808 61.7214 174.358C71.8166 173.26 82.0098 172.613 92.0488 174.119C102.756 175.725 105.121 187.805 107.452 197.127C108.821 202.606 110.913 208.49 113 213.917C115.41 220.181 117.47 229.211 121.611 234.534C130.186 245.559 141.824 248.698 155.095 251.611C181.76 257.464 205.295 237.057 226.369 224.345C230.739 221.709 234.02 217.353 238.232 214.396C242.442 211.441 246.183 208.002 250.287 204.924C255.971 200.661 260.804 196.99 265.785 192.009C271.576 186.218 279.933 179.661 287.789 177.18C291.24 176.09 293.973 171.717 295.012 168.426C295.656 166.39 297.749 165.439 298.839 163.595C300.573 160.66 302.005 157.818 304.053 155.032C306.624 151.537 315.517 145.963 315.725 141.495C316.06 134.295 316.002 127.871 308.837 124.801C305.69 123.452 303.768 120.644 300.705 119.252C296.745 117.452 293.946 116.036 290.372 113.32C281.641 106.685 274.415 96.9802 268.368 87.8243C264.223 81.5465 260.653 75.9545 255.883 70.1254C254.413 68.3285 254.496 65.8406 253.253 64.2417C251.588 62.1014 250.287 60.7794 250.287 57.6883" stroke="#6A6A6A" stroke-opacity="0.62" stroke-width="3" stroke-linecap="round"/>
<path d="M100.173 458.033C99.713 456.915 99.4185 456.446 98.4211 455.682C97.3173 454.838 96.9912 453.448 96.1869 452.398C95.8065 451.901 95.6746 451.289 95.406 450.739C94.9251 449.754 93.8693 449.296 93.234 448.439C92.5862 447.566 92.4906 446.409 91.8428 445.536C90.8995 444.263 89.726 443.346 88.9131 441.931C86.9311 438.482 85.1315 434.915 84.2985 431.017C83.4101 426.858 88.3524 423.825 92.0908 421.302C94.2879 419.819 96.5553 418.002 98.6234 416.269C101.01 414.268 104.661 411.895 106.378 409.439C109.934 404.353 109.579 399.581 108.882 394.261C107.482 383.571 95.039 378.748 86.3348 373.426C84.5299 372.323 82.1329 371.923 80.2106 370.935C78.2898 369.946 76.2264 369.215 74.2676 368.287C71.5543 367.003 69.2269 365.918 66.3032 365.017C62.9046 363.969 58.7882 362.132 56.5328 359.741C55.5422 358.691 53.219 358.492 51.6227 358.71C50.6346 358.845 49.9067 358.26 48.9364 358.199C47.3925 358.101 45.9344 358.097 44.4089 357.859C42.4947 357.561 38.7298 355.353 36.741 356.083C33.5359 357.261 30.7297 358.441 30.4495 361.583C30.3265 362.963 29.3818 364.164 29.2272 365.522C29.0272 367.278 28.823 368.544 28.1643 370.325C26.5548 374.677 23.3768 379.038 20.2636 382.874C18.129 385.504 16.2094 387.802 14.3642 390.577C13.7954 391.432 12.6928 391.851 12.1771 392.588C11.4867 393.576 11.1008 394.285 9.74628 394.842" stroke="#6A6A6A" stroke-opacity="0.62" stroke-width="3" stroke-linecap="round"/>
<path d="M517.215 265.247C514.255 266.148 512.974 266.744 510.704 268.828C508.193 271.134 504.602 271.725 501.686 273.371C500.307 274.149 498.729 274.384 497.257 274.918C494.622 275.873 493.094 278.107 490.722 279.405C488.304 280.729 485.381 280.842 482.962 282.166C479.44 284.093 476.722 286.543 472.891 288.179C463.552 292.166 453.989 295.752 443.946 297.233C433.235 298.812 427.456 287.942 422.514 279.702C419.61 274.859 415.896 269.838 412.32 265.253C408.192 259.961 403.593 251.922 398.083 248.034C386.67 239.981 374.622 240.365 361.078 241.44C333.864 243.599 317.286 269.972 300.822 288.266C297.409 292.06 295.538 297.182 292.368 301.237C289.201 305.289 286.622 309.668 283.591 313.807C279.394 319.539 275.838 324.458 272.522 330.673C268.667 337.898 262.58 346.604 255.785 351.263C252.801 353.31 251.459 358.29 251.422 361.74C251.399 363.876 249.673 365.394 249.167 367.476C248.362 370.788 247.819 373.924 246.67 377.185C245.228 381.278 238.341 389.198 239.443 393.533C241.218 400.519 243.142 406.648 250.891 407.5C254.293 407.875 256.95 410.002 260.286 410.443C264.598 411.013 267.688 411.553 271.897 413.111C282.181 416.919 291.919 424.1 300.368 431.101C306.161 435.9 311.204 440.212 317.463 444.401C319.392 445.692 320.037 448.096 321.692 449.264C323.907 450.827 325.537 451.714 326.436 454.671" stroke="#6A6A6A" stroke-opacity="0.62" stroke-width="3" stroke-linecap="round"/>
<path d="M745.444 265.208C744.92 266.732 744.559 267.378 743.249 268.457C741.8 269.652 741.491 271.532 740.48 272.984C740.002 273.671 739.882 274.498 739.566 275.251C738.999 276.597 737.576 277.271 736.78 278.455C735.97 279.662 735.957 281.216 735.146 282.423C733.965 284.182 732.426 285.477 731.442 287.419C729.041 292.152 726.906 297.031 726.153 302.301C725.349 307.921 732.547 311.7 738.016 314.865C741.23 316.725 744.577 319.029 747.637 321.231C751.169 323.773 756.5 326.742 759.147 329.933C764.629 336.542 764.631 342.952 764.215 350.118C763.379 364.515 746.555 371.687 734.988 379.313C732.59 380.894 729.294 381.567 726.72 383.001C724.148 384.435 721.351 385.533 718.72 386.887C715.075 388.763 711.947 390.349 707.97 391.724C703.346 393.322 697.805 396.018 694.914 399.349C693.644 400.813 690.429 401.212 688.184 401.011C686.794 400.887 685.841 401.713 684.496 401.85C682.356 402.069 680.326 402.159 678.227 402.564C675.592 403.073 670.579 406.246 667.734 405.382C663.148 403.988 659.117 402.569 658.4 398.377C658.085 396.535 656.644 394.981 656.287 393.171C655.826 390.832 655.41 389.147 654.307 386.8C651.612 381.064 646.732 375.405 641.998 370.446C638.751 367.046 635.838 364.078 632.98 360.468C632.099 359.355 630.52 358.857 629.725 357.899C628.66 356.616 628.049 355.689 626.105 355.02" stroke="#6A6A6A" stroke-opacity="0.62" stroke-width="3" stroke-linecap="round"/>
<path d="M688.329 93.557C688.463 93.2883 688.624 93.2169 689.424 93.3137C690.31 93.4209 690.22 92.9859 690.732 92.8863C690.974 92.8391 690.922 92.6426 691.032 92.5277C691.228 92.3219 692.183 92.5678 692.578 92.4777C692.982 92.3859 692.725 91.9521 693.129 91.8603C693.716 91.7266 694.652 91.8326 695.06 91.5872C696.056 90.9887 696.826 90.2677 696.491 89.0141C696.134 87.677 690.072 84.4085 685.416 81.8425C682.68 80.3346 679.769 78.661 677.089 77.1035C673.997 75.306 669.479 72.8377 666.942 71.1283C661.687 67.5881 660.588 65.7816 659.674 63.8904C657.838 60.0907 669.266 63.2212 676.662 64.6141C678.195 64.9029 680.559 65.7227 682.25 66.1066C683.939 66.4902 685.855 67.0373 687.603 67.4613C690.023 68.0485 692.104 68.5596 694.861 69.3901C698.065 70.3554 701.772 71.2922 703.377 71.239C704.081 71.2156 706.431 72.0873 708.155 72.8313C709.221 73.2918 709.797 73.351 710.785 73.724C712.357 74.3175 713.869 74.9137 715.378 75.4422C717.273 76.1053 720.501 76.7462 722.789 77.861C726.477 79.6576 729.752 81.2913 731.009 82.6921C731.562 83.3073 732.911 84.1862 733.49 84.8052C734.237 85.6056 734.839 86.2076 736.07 87.2065C739.079 89.6473 743.718 92.7354 748.129 95.582C751.153 97.5338 753.852 99.2617 756.62 101.154C757.474 101.737 758.746 102.361 759.509 102.874C760.529 103.561 761.147 104.01 762.724 104.793" stroke="#6A6A6A" stroke-opacity="0.62" stroke-width="3" stroke-linecap="round"/>
<path d="M690.071 93.8408C687.978 95.0315 687.183 95.8358 686.327 98.7022C685.38 101.874 682.572 102.616 680.919 104.852C680.137 105.91 678.89 106.201 677.895 106.914C676.115 108.19 675.986 111.285 674.618 113.047C673.224 114.843 670.741 114.932 669.347 116.729C667.317 119.345 666.268 122.714 663.812 124.914C657.827 130.278 651.43 135.074 643.485 136.907C635.012 138.863 624.146 123.489 615.42 111.82C610.292 104.963 604.365 97.8361 598.79 91.3231C592.356 83.8065 584.037 72.4284 577.153 66.846C562.898 55.2843 552.619 55.5322 541.409 56.7125C518.886 59.0838 518.622 95.6494 514.119 120.894C513.185 126.129 514.308 133.264 513.727 138.871C513.146 144.474 513.254 150.549 512.839 156.277C512.264 164.21 511.811 171.019 512.263 179.65C512.788 189.684 512.165 201.739 508.755 208.107C507.257 210.904 508.763 217.851 510.584 222.686C511.711 225.679 511.024 227.766 511.702 230.671C512.78 235.295 513.991 239.676 514.743 244.219C515.686 249.921 513.946 260.856 517.232 266.959C522.528 276.793 527.494 285.429 534.695 286.811C537.857 287.418 541.311 290.464 544.451 291.162C548.51 292.064 551.489 292.895 555.988 295.181C566.983 300.766 579.313 311.066 590.425 321.081C598.044 327.947 604.748 334.112 612.444 340.134C614.816 341.99 616.669 345.375 618.736 347.052C621.503 349.296 623.397 350.578 625.768 354.744" stroke="#6A6A6A" stroke-opacity="0.62" stroke-width="3" stroke-linecap="round"/>
</svg>
